<?xml version="1.0" standalone="no"?>
<!DOCTYPE svg PUBLIC "-//W3C//DTD SVG 20010904//EN"
 "http://www.w3.org/TR/2001/REC-SVG-20010904/DTD/svg10.dtd">
<svg version="1.0" xmlns="http://www.w3.org/2000/svg"
 width="16.000000pt" height="16.000000pt" viewBox="0 0 16.000000 16.000000"
 preserveAspectRatio="xMidYMid meet">
<metadata>
Created by potrace 1.11, written by Peter Selinger 2001-2013
</metadata>
<g transform="translate(0.000000,16.000000) scale(0.005333,-0.005333)"
fill="#000000" stroke="none">
<path d="M0 1500 l0 -1500 1500 0 1500 0 0 1500 0 1500 -1500 0 -1500 0 0
-1500z m1371 315 c294 -308 559 -586 588 -617 30 -32 58 -58 62 -58 5 0 9 281
9 625 l0 625 135 0 135 0 0 -960 c0 -528 -2 -960 -4 -960 -2 0 -95 96 -207
213 -112 117 -408 425 -656 684 l-453 472 0 -634 0 -635 -135 0 -135 0 0 967
0 968 64 -65 c34 -36 303 -317 597 -625z"/>
</g>
</svg>
